<svg width="48" height="46" viewBox="0 0 48 46" fill="none" xmlns="http://www.w3.org/2000/svg">
<path d="M17.2229 0.000785922C16.7882 0.0068264 16.3748 0.048103 15.9931 0.126629C14.7422 0.380329 13.2581 1.10619 12.198 2.06663C11.1485 3.02706 10.5548 4.14757 10.6926 5.28922L10.8834 6.74699L9.42051 6.25368C6.39604 5.20767 4.11788 6.26375 2.41112 8.29738C0.703299 10.3411 -0.214749 13.4116 0.0428557 15.9688C0.230494 17.8413 1.60014 19.7038 3.52211 21.1535C5.44301 22.5932 7.88336 23.5898 9.87635 23.8113C11.6361 24.0026 13.9471 22.865 15.7493 21.5562C17.5621 20.2474 18.8448 18.8783 18.8448 18.8783L19.3431 18.3447L20.0003 18.687C20.0003 18.687 21.1876 19.281 22.6506 19.9152C24.1135 20.5595 25.9051 21.224 26.785 21.3549C27.5058 21.4656 29.0324 21.083 30.2621 20.5897C31.4918 20.0864 32.4565 19.5528 32.4565 19.5528L33.3046 19.0796L33.771 19.9052C33.771 19.9052 34.6191 21.3951 36.0184 22.865C37.4178 24.3449 39.3048 25.6939 41.1917 25.6738C43.0575 25.6537 44.6265 24.2845 45.835 22.2005C47.0435 20.1166 47.7856 17.4084 47.9658 15.3144C48.252 12.1633 46.7255 8.06583 44.0434 6.58591C43.3967 6.23355 41.5522 6.28389 39.962 6.61611C38.3719 6.95841 37.0361 7.45171 37.0361 7.45171L35.1916 8.12623L35.7746 6.33422C35.7746 6.33422 36.0078 5.61541 35.8064 4.73249C35.605 3.85058 35.0856 2.85793 33.0926 2.17838C30.3151 1.226 28.8946 1.70923 28.0465 2.29516C27.1984 2.88209 26.9546 3.61903 26.9546 3.61903L26.2973 5.54091L25.216 3.79622C24.5269 2.66463 23.011 1.52601 21.2618 0.81323C19.9473 0.278648 18.5162 -0.0173355 17.2229 0.000785922ZM19.7459 20.5998C19.4809 20.8616 19.0992 21.224 18.601 21.6569C18.6964 22.4321 18.6646 23.2375 18.389 24.1436C18.2617 24.5362 17.3077 24.1536 16.1309 23.5395C15.0814 24.2342 13.9153 24.8785 12.6644 25.2711C13.7457 25.8047 14.9542 26.3081 16.396 26.8517C15.8977 36.889 16.6398 43.2012 8.21199 46H19.4491V34.7244C19.4491 31.5029 27.5058 31.5029 27.5058 34.7244V46H40.4391C38.8489 44.8825 36.3153 44.208 32.2339 43.5737C29.0218 34.1506 30.3681 30.6069 36.4531 25.7443C35.7534 25.2308 35.1386 24.6469 34.5979 24.0831C34.3647 23.8415 34.1633 23.5999 33.9724 23.3784C32.9972 24.355 31.9158 25.0295 30.8982 24.7778C30.0607 24.5664 29.5412 23.8315 29.2338 22.8751C28.3327 23.1267 27.3998 23.2778 26.4881 23.1469C25.6294 23.0261 24.633 22.7039 23.6471 22.3113C23.5092 23.0361 23.1382 23.7509 22.3961 24.506C21.9403 24.9691 21.2724 23.0261 20.6046 21.0025C20.2759 20.8515 19.9897 20.7105 19.7459 20.5998ZM25.2796 38.7917C25.0266 38.7917 24.7839 38.8872 24.605 39.0571C24.426 39.227 24.3255 39.4575 24.3255 39.6978C24.3255 39.9381 24.426 40.1685 24.605 40.3385C24.7839 40.5084 25.0266 40.6038 25.2796 40.6038C25.5327 40.6038 25.7753 40.5084 25.9543 40.3385C26.1332 40.1685 26.2337 39.9381 26.2337 39.6978C26.2337 39.4575 26.1332 39.227 25.9543 39.0571C25.7753 38.8872 25.5327 38.7917 25.2796 38.7917Z" fill="#698E63"/>
</svg>
