<svg width="129" height="50" viewBox="0 0 129 50" fill="none" xmlns="http://www.w3.org/2000/svg">
<path d="M17.2229 0.000831027C16.7882 0.00721817 16.3748 0.0508637 15.9931 0.133897C14.7422 0.402157 13.2581 1.16968 12.198 2.18523C11.1485 3.20079 10.5548 4.38561 10.6926 5.59278L10.8834 7.13421L9.42051 6.61259C6.39604 5.50655 4.11788 6.62324 2.41112 8.77357C0.703299 10.9346 -0.214749 14.1814 0.0428557 16.8852C0.230494 18.8653 1.60014 20.8346 3.52211 22.3675C5.44301 23.8898 7.88336 24.9437 9.87635 25.1779C11.6361 25.3802 13.9471 24.1772 15.7493 22.7934C17.5621 21.4095 18.8448 19.9617 18.8448 19.9617L19.3431 19.3975L20.0003 19.7595C20.0003 19.7595 21.1876 20.3875 22.6506 21.0582C24.1135 21.7395 25.9051 22.4421 26.785 22.5805C27.5058 22.6975 29.0324 22.293 30.2621 21.7714C31.4918 21.2392 32.4565 20.675 32.4565 20.675L33.3046 20.1746L33.771 21.0475C33.771 21.0475 34.6191 22.623 36.0184 24.1772C37.4178 25.7421 39.3048 27.1686 41.1917 27.1473C43.0575 27.126 44.6265 25.6782 45.835 23.4747C47.0435 21.2711 47.7856 18.4075 47.9658 16.1933C48.252 12.8613 46.7255 8.52873 44.0434 6.96388C43.3967 6.5913 41.5522 6.64453 39.962 6.99582C38.3719 7.35776 37.0361 7.87937 37.0361 7.87937L35.1916 8.59261L35.7746 6.69775C35.7746 6.69775 36.0078 5.93768 35.8064 5.00409C35.605 4.07157 35.0856 3.02195 33.0926 2.3034C30.3151 1.29636 28.8946 1.80733 28.0465 2.42688C27.1984 3.0475 26.9546 3.82673 26.9546 3.82673L26.2973 5.85891L25.216 4.01409C24.5269 2.81756 23.011 1.61359 21.2618 0.859902C19.9473 0.29464 18.5162 -0.0183304 17.2229 0.000831027ZM19.7459 21.7821C19.4809 22.0588 19.0992 22.4421 18.601 22.8998C18.6964 23.7195 18.6646 24.5711 18.389 25.5292C18.2617 25.9443 17.3077 25.5398 16.1309 24.8905C15.0814 25.625 13.9153 26.3063 12.6644 26.7215C13.7457 27.2856 14.9542 27.8179 16.396 28.3928C15.8977 39.0061 16.6398 45.6806 8.21199 48.64H19.4491V36.7173C19.4491 33.3109 27.5058 33.3109 27.5058 36.7173V48.64H40.4391C38.8489 47.4584 36.3153 46.7452 32.2339 46.0745C29.0218 36.1106 30.3681 32.3634 36.4531 27.2218C35.7534 26.6789 35.1386 26.0614 34.5979 25.4653C34.3647 25.2098 34.1633 24.9543 33.9724 24.7201C32.9972 25.7527 31.9158 26.466 30.8982 26.1998C30.0607 25.9763 29.5412 25.1992 29.2338 24.1879C28.3327 24.454 27.3998 24.6137 26.4881 24.4753C25.6294 24.3476 24.633 24.0069 23.6471 23.5918C23.5092 24.3582 23.1382 25.114 22.3961 25.9124C21.9403 26.4021 21.2724 24.3476 20.6046 22.2079C20.2759 22.0482 19.9897 21.8992 19.7459 21.7821ZM25.2796 41.018C25.0266 41.018 24.7839 41.1189 24.605 41.2986C24.426 41.4783 24.3255 41.722 24.3255 41.9761C24.3255 42.2302 24.426 42.4739 24.605 42.6535C24.7839 42.8332 25.0266 42.9342 25.2796 42.9342C25.5327 42.9342 25.7753 42.8332 25.9543 42.6535C26.1332 42.4739 26.2337 42.2302 26.2337 41.9761C26.2337 41.722 26.1332 41.4783 25.9543 41.2986C25.7753 41.1189 25.5327 41.018 25.2796 41.018Z" fill="#698E63"/>
<path d="M55.8049 47.0927C55.3567 47.0927 54.9588 46.9845 54.6111 46.7682C54.2711 46.5518 54.0045 46.2621 53.8113 45.8989C53.6182 45.528 53.5216 45.1108 53.5216 44.6472C53.5216 44.1063 53.6413 43.6388 53.8809 43.2447C54.1204 42.8429 54.4256 42.53 54.7965 42.3059C55.1674 42.0818 55.5499 41.9698 55.944 41.9698C56.5312 41.9698 56.9755 42.0973 57.2769 42.3523C57.5859 42.6072 57.7405 42.9125 57.7405 43.2679C57.7405 43.4842 57.6787 43.6465 57.555 43.7547C57.4391 43.8551 57.3116 43.9054 57.1725 43.9054C57.0257 43.9054 56.8905 43.859 56.7669 43.7663C56.651 43.6736 56.593 43.5461 56.593 43.3838C56.593 43.2756 56.6201 43.1674 56.6742 43.0593C56.6896 43.0206 56.7051 42.982 56.7205 42.9434C56.7437 42.9047 56.7553 42.8622 56.7553 42.8159C56.7553 42.6459 56.6703 42.5145 56.5003 42.4218C56.3303 42.3213 56.1178 42.2711 55.8628 42.2711C55.6233 42.2711 55.3838 42.3368 55.1442 42.4682C54.9124 42.5995 54.7192 42.8159 54.5647 43.1172C54.4179 43.4186 54.3445 43.8281 54.3445 44.3458C54.3445 45.0258 54.5145 45.5435 54.8545 45.8989C55.2022 46.2466 55.6194 46.4205 56.1062 46.4205C56.6239 46.4205 57.13 46.2157 57.6246 45.8062L57.7636 45.9221C57.4778 46.3316 57.1532 46.6291 56.7901 46.8146C56.4346 47 56.1062 47.0927 55.8049 47.0927ZM61.1166 47.0927C60.6376 47.0927 60.2126 46.9845 59.8417 46.7682C59.4785 46.5441 59.1965 46.2428 58.9956 45.8641C58.7947 45.4778 58.6942 45.049 58.6942 44.5776C58.6942 44.0676 58.7947 43.6156 58.9956 43.2215C59.1965 42.8275 59.4785 42.5222 59.8417 42.3059C60.2126 42.0818 60.6376 41.9698 61.1166 41.9698C61.6034 41.9698 62.0284 42.0818 62.3916 42.3059C62.7547 42.5222 63.0368 42.8197 63.2377 43.1984C63.4386 43.577 63.539 44.0058 63.539 44.4849C63.539 44.9949 63.4386 45.4469 63.2377 45.841C63.0368 46.2273 62.7547 46.5325 62.3916 46.7566C62.0284 46.9807 61.6034 47.0927 61.1166 47.0927ZM61.1282 46.8146C61.6073 46.8146 61.982 46.6252 62.2525 46.2466C62.5229 45.8603 62.6581 45.3155 62.6581 44.6124C62.6581 43.886 62.5229 43.3104 62.2525 42.8854C61.982 42.4604 61.5996 42.2479 61.105 42.2479C60.626 42.2479 60.2512 42.4373 59.9808 42.8159C59.7103 43.1945 59.5751 43.7392 59.5751 44.4501C59.5751 45.1764 59.7103 45.7521 59.9808 46.1771C60.2512 46.6021 60.6337 46.8146 61.1282 46.8146ZM64.4641 47V46.8261L64.9509 46.6986C65.0668 46.6677 65.144 46.6252 65.1827 46.5712C65.229 46.5171 65.2522 46.4359 65.2522 46.3278V42.4102H64.4757V42.0625H65.2522V41.8307C65.2522 41.4907 65.2986 41.1546 65.3913 40.8223C65.4917 40.4901 65.6463 40.1849 65.8549 39.9067C66.0713 39.6285 66.3456 39.4083 66.6778 39.246C67.0178 39.076 67.4312 38.991 67.918 38.991C68.1653 38.991 68.4241 39.0335 68.6946 39.1185C68.965 39.2035 69.1814 39.3156 69.3436 39.4547L68.8568 40.0226C68.8027 39.7985 68.6637 39.6131 68.4396 39.4662C68.2155 39.3117 67.9798 39.2344 67.7326 39.2344C67.4158 39.2344 67.1453 39.3117 66.9212 39.4662C66.7049 39.6208 66.531 39.8294 66.3997 40.0921C66.2683 40.3471 66.1717 40.633 66.1099 40.9498C66.0558 41.2589 66.0288 41.5757 66.0288 41.9002V42.0625H68.6366V42.4102H66.0288V46.3278C66.0288 46.4359 66.0481 46.5171 66.0867 46.5712C66.1331 46.6252 66.2142 46.6677 66.3301 46.6986L66.8865 46.8261V47H64.4641ZM67.5819 47V46.8261L68.0687 46.6986C68.1846 46.6677 68.2619 46.6252 68.3005 46.5712C68.3468 46.5171 68.37 46.4359 68.37 46.3278V42.387H67.5935V42.0625H68.37V41.228C68.37 40.7644 68.4473 40.3471 68.6018 39.9762C68.7641 39.6053 69.0036 39.3117 69.3204 39.0954C69.6372 38.8713 70.0236 38.7592 70.4795 38.7592C70.8426 38.7592 71.144 38.8365 71.3835 38.991C71.6308 39.1456 71.7544 39.3388 71.7544 39.5706C71.7544 39.7174 71.7081 39.841 71.6153 39.9415C71.5303 40.0342 71.4106 40.0805 71.256 40.0805C71.086 40.0805 70.9547 40.038 70.862 39.953C70.7692 39.868 70.7229 39.7637 70.7229 39.6401C70.7229 39.6092 70.7267 39.5822 70.7345 39.559C70.7422 39.5358 70.7499 39.5126 70.7576 39.4894C70.7654 39.4662 70.7731 39.4431 70.7808 39.4199C70.7886 39.3967 70.7924 39.3697 70.7924 39.3388C70.7924 39.2538 70.7538 39.1881 70.6765 39.1417C70.607 39.0876 70.5181 39.0606 70.4099 39.0606C70.0777 39.0606 69.8188 39.1649 69.6334 39.3735C69.4479 39.5744 69.3204 39.8449 69.2509 40.1849C69.1814 40.5171 69.1466 40.888 69.1466 41.2975V42.0625H70.6997L70.5838 42.387H69.1466V46.3278C69.1466 46.4359 69.1659 46.5171 69.2045 46.5712C69.2509 46.6252 69.332 46.6677 69.4479 46.6986L70.0622 46.8261V47H67.5819ZM73.4174 47.0927C72.9692 47.0927 72.5713 46.9807 72.2236 46.7566C71.8758 46.5325 71.6015 46.235 71.4006 45.8641C71.2075 45.4855 71.1109 45.0644 71.1109 44.6008C71.1109 44.0831 71.2152 43.6272 71.4238 43.2331C71.6325 42.8391 71.9145 42.53 72.2699 42.3059C72.6331 42.0818 73.0388 41.9698 73.4869 41.9698C73.8501 41.9698 74.163 42.0586 74.4257 42.2364C74.6962 42.4063 74.9048 42.642 75.0516 42.9434C75.2062 43.237 75.2834 43.5692 75.2834 43.9401C75.2834 43.9865 75.268 44.029 75.2371 44.0676C75.2139 44.1063 75.1675 44.1256 75.098 44.1256H71.7484V43.859L74.1244 43.7895C74.2712 43.7895 74.3446 43.7199 74.3446 43.5808C74.3446 43.2177 74.2635 42.9086 74.1012 42.6536C73.9467 42.3986 73.6994 42.2711 73.3594 42.2711C72.9344 42.2711 72.5906 42.4643 72.3279 42.8506C72.0652 43.2293 71.9338 43.7276 71.9338 44.3458C71.9338 44.794 72.0149 45.1726 72.1772 45.4817C72.3395 45.7907 72.5558 46.0264 72.8263 46.1887C73.0967 46.3432 73.3942 46.4205 73.7187 46.4205C74.2055 46.4205 74.6962 46.2157 75.1907 45.8062L75.3298 45.9221C75.0439 46.3316 74.7271 46.6291 74.3794 46.8146C74.0394 47 73.7187 47.0927 73.4174 47.0927ZM78.7372 47.0927C78.289 47.0927 77.8911 46.9807 77.5434 46.7566C77.1957 46.5325 76.9213 46.235 76.7204 45.8641C76.5273 45.4855 76.4307 45.0644 76.4307 44.6008C76.4307 44.0831 76.535 43.6272 76.7436 43.2331C76.9523 42.8391 77.2343 42.53 77.5897 42.3059C77.9529 42.0818 78.3586 41.9698 78.8067 41.9698C79.1699 41.9698 79.4828 42.0586 79.7455 42.2364C80.016 42.4063 80.2246 42.642 80.3714 42.9434C80.526 43.237 80.6032 43.5692 80.6032 43.9401C80.6032 43.9865 80.5878 44.029 80.5569 44.0676C80.5337 44.1063 80.4873 44.1256 80.4178 44.1256H77.0682V43.859L79.4442 43.7895C79.591 43.7895 79.6644 43.7199 79.6644 43.5808C79.6644 43.2177 79.5833 42.9086 79.421 42.6536C79.2665 42.3986 79.0192 42.2711 78.6792 42.2711C78.2542 42.2711 77.9104 42.4643 77.6477 42.8506C77.385 43.2293 77.2536 43.7276 77.2536 44.3458C77.2536 44.794 77.3347 45.1726 77.497 45.4817C77.6593 45.7907 77.8756 46.0264 78.1461 46.1887C78.4165 46.3432 78.714 46.4205 79.0385 46.4205C79.5253 46.4205 80.016 46.2157 80.5105 45.8062L80.6496 45.9221C80.3637 46.3316 80.0469 46.6291 79.6992 46.8146C79.3592 47 79.0385 47.0927 78.7372 47.0927ZM87.0112 47.0927C86.563 47.0927 86.1651 46.9807 85.8174 46.7566C85.4696 46.5325 85.1953 46.235 84.9944 45.8641C84.8013 45.4855 84.7047 45.0644 84.7047 44.6008C84.7047 44.0831 84.809 43.6272 85.0176 43.2331C85.2263 42.8391 85.5083 42.53 85.8637 42.3059C86.2269 42.0818 86.6326 41.9698 87.0807 41.9698C87.4439 41.9698 87.7568 42.0586 88.0195 42.2364C88.29 42.4063 88.4986 42.642 88.6454 42.9434C88.8 43.237 88.8772 43.5692 88.8772 43.9401C88.8772 43.9865 88.8618 44.029 88.8309 44.0676C88.8077 44.1063 88.7613 44.1256 88.6918 44.1256H85.3422V43.859L87.7182 43.7895C87.865 43.7895 87.9384 43.7199 87.9384 43.5808C87.9384 43.2177 87.8573 42.9086 87.695 42.6536C87.5405 42.3986 87.2932 42.2711 86.9532 42.2711C86.5282 42.2711 86.1844 42.4643 85.9217 42.8506C85.659 43.2293 85.5276 43.7276 85.5276 44.3458C85.5276 44.794 85.6087 45.1726 85.771 45.4817C85.9333 45.7907 86.1496 46.0264 86.4201 46.1887C86.6905 46.3432 86.988 46.4205 87.3125 46.4205C87.7993 46.4205 88.29 46.2157 88.7845 45.8062L88.9236 45.9221C88.6377 46.3316 88.3209 46.6291 87.9732 46.8146C87.6332 47 87.3125 47.0927 87.0112 47.0927ZM92.0235 47.1391L90.0531 42.6072C90.0145 42.5145 89.972 42.4488 89.9256 42.4102C89.8792 42.3716 89.802 42.3407 89.6938 42.3175L89.3345 42.2364V42.0625H91.7917V42.2364L91.1426 42.387C91.0421 42.4102 90.9726 42.445 90.934 42.4913C90.9031 42.53 90.8992 42.5802 90.9224 42.642L92.348 45.9569H92.2205L93.6229 42.5725C93.6384 42.5338 93.6345 42.4991 93.6114 42.4682C93.5959 42.4373 93.5302 42.4063 93.4143 42.3754L92.8696 42.2364V42.0625H94.6777V42.2364L94.3068 42.3291C94.2063 42.3523 94.1291 42.3832 94.075 42.4218C94.0286 42.4604 93.9861 42.5261 93.9475 42.6188L92.1394 47.1391H92.0235ZM97.2659 47.0927C96.8178 47.0927 96.4198 46.9807 96.0721 46.7566C95.7244 46.5325 95.4501 46.235 95.2492 45.8641C95.056 45.4855 94.9595 45.0644 94.9595 44.6008C94.9595 44.0831 95.0638 43.6272 95.2724 43.2331C95.481 42.8391 95.7631 42.53 96.1185 42.3059C96.4817 42.0818 96.8873 41.9698 97.3355 41.9698C97.6987 41.9698 98.0116 42.0586 98.2743 42.2364C98.5448 42.4063 98.7534 42.642 98.9002 42.9434C99.0547 43.237 99.132 43.5692 99.132 43.9401C99.132 43.9865 99.1165 44.029 99.0856 44.0676C99.0625 44.1063 99.0161 44.1256 98.9466 44.1256H95.5969V43.859L97.973 43.7895C98.1198 43.7895 98.1932 43.7199 98.1932 43.5808C98.1932 43.2177 98.112 42.9086 97.9498 42.6536C97.7952 42.3986 97.548 42.2711 97.208 42.2711C96.783 42.2711 96.4392 42.4643 96.1765 42.8506C95.9137 43.2293 95.7824 43.7276 95.7824 44.3458C95.7824 44.794 95.8635 45.1726 96.0258 45.4817C96.188 45.7907 96.4044 46.0264 96.6748 46.1887C96.9453 46.3432 97.2428 46.4205 97.5673 46.4205C98.0541 46.4205 98.5448 46.2157 99.0393 45.8062L99.1784 45.9221C98.8925 46.3316 98.5757 46.6291 98.2279 46.8146C97.888 47 97.5673 47.0927 97.2659 47.0927ZM103.295 47V46.8261L103.782 46.6986C103.898 46.6677 103.975 46.6252 104.014 46.5712C104.06 46.5171 104.084 46.4359 104.084 46.3278V43.7315C104.084 43.3606 103.979 43.0786 103.771 42.8854C103.57 42.6845 103.276 42.5841 102.89 42.5841C102.511 42.5841 102.202 42.7116 101.963 42.9665C101.731 43.2138 101.615 43.5074 101.615 43.8474L101.302 42.7H101.592C101.777 42.6227 102.001 42.5184 102.264 42.387C102.527 42.2479 102.755 42.1282 102.948 42.0277C103.025 41.9891 103.087 41.9698 103.133 41.9698C103.682 41.9698 104.107 42.1089 104.408 42.387C104.71 42.6575 104.86 43.0554 104.86 43.5808V46.3278C104.86 46.4359 104.879 46.5171 104.918 46.5712C104.964 46.6252 105.046 46.6677 105.162 46.6986L105.648 46.8261V47H103.295ZM100.05 47V46.8261L100.537 46.6986C100.653 46.6677 100.73 46.6252 100.769 46.5712C100.815 46.5171 100.838 46.4359 100.838 46.3278V43.1636C100.838 43.009 100.819 42.9009 100.78 42.8391C100.742 42.7772 100.668 42.7309 100.56 42.7L100.062 42.5609V42.445C100.239 42.4063 100.413 42.3638 100.583 42.3175C100.761 42.2711 100.931 42.217 101.093 42.1552C101.263 42.0934 101.426 42.02 101.58 41.935L101.684 42.0045C101.646 42.105 101.611 42.217 101.58 42.3407C101.557 42.4566 101.545 42.5686 101.545 42.6768V42.7927L101.615 42.9665V46.3278C101.615 46.4359 101.634 46.5171 101.673 46.5712C101.719 46.6252 101.8 46.6677 101.916 46.6986L102.403 46.8261V47H100.05ZM107.876 47.0927C107.227 47.0927 106.902 46.6677 106.902 45.8178V42.387H106.114V42.1552C106.578 42.047 106.902 41.8732 107.088 41.6337C107.281 41.3864 107.393 41.031 107.424 40.5673H107.679V42.0625H109.244L109.128 42.387H107.679V45.7135C107.679 46.0148 107.729 46.2273 107.83 46.3509C107.93 46.4746 108.065 46.5364 108.235 46.5364C108.367 46.5364 108.506 46.5093 108.653 46.4553C108.807 46.4012 108.969 46.3278 109.139 46.235L109.278 46.4205C109.016 46.6368 108.761 46.803 108.514 46.9189C108.266 47.0348 108.054 47.0927 107.876 47.0927ZM113.9 47.1391L113.796 47.1159V39.9762C113.796 39.8217 113.777 39.7135 113.738 39.6517C113.7 39.5899 113.626 39.5435 113.518 39.5126L112.985 39.3735V39.2576C113.263 39.1958 113.537 39.1301 113.808 39.0606C114.078 38.9833 114.341 38.879 114.596 38.7476L114.7 38.8172C114.638 38.9872 114.6 39.1649 114.584 39.3503C114.569 39.5281 114.561 39.7521 114.561 40.0226V42.6304L115.616 42.0973C115.67 42.0741 115.736 42.047 115.813 42.0161C115.89 41.9852 115.967 41.9698 116.045 41.9698C116.601 41.9698 117.057 42.0857 117.412 42.3175C117.775 42.5493 118.042 42.8506 118.212 43.2215C118.39 43.5924 118.479 43.9942 118.479 44.4269C118.479 44.8596 118.39 45.2808 118.212 45.6903C118.034 46.0998 117.764 46.4359 117.401 46.6986C117.038 46.9614 116.574 47.0927 116.01 47.0927C115.716 47.0927 115.426 47.0348 115.141 46.9189C114.855 46.7952 114.623 46.6446 114.445 46.4668C114.337 46.5596 114.24 46.66 114.155 46.7682C114.07 46.8764 113.985 47 113.9 47.1391ZM116.033 46.7914C116.412 46.7914 116.721 46.6986 116.96 46.5132C117.2 46.32 117.378 46.0728 117.493 45.7714C117.609 45.4701 117.667 45.1455 117.667 44.7978C117.667 44.4115 117.602 44.0483 117.47 43.7083C117.339 43.3683 117.138 43.094 116.868 42.8854C116.597 42.6691 116.249 42.5609 115.824 42.5609C115.423 42.5609 115.11 42.6652 114.886 42.8738C114.669 43.0747 114.561 43.3143 114.561 43.5924V45.2267C114.561 45.5126 114.631 45.7753 114.77 46.0148C114.909 46.2544 115.09 46.4437 115.314 46.5827C115.539 46.7218 115.778 46.7914 116.033 46.7914ZM120.949 47.0811C120.718 47.0811 120.497 47.0077 120.289 46.8609C120.08 46.7141 119.91 46.5248 119.779 46.293C119.647 46.0535 119.582 45.8101 119.582 45.5628C119.582 45.4314 119.593 45.3387 119.617 45.2846C119.647 45.2305 119.69 45.1919 119.744 45.1687L121.958 44.369C122.143 44.2994 122.271 44.2222 122.34 44.1372C122.41 44.0445 122.445 43.9208 122.445 43.7663V43.5577C122.445 43.2022 122.36 42.8931 122.19 42.6304C122.02 42.3677 121.757 42.2364 121.401 42.2364C121.17 42.2364 120.976 42.2904 120.822 42.3986C120.675 42.5068 120.602 42.6536 120.602 42.8391C120.602 42.8854 120.613 42.9318 120.637 42.9781C120.66 43.0168 120.687 43.0554 120.718 43.094C120.764 43.1559 120.803 43.2215 120.834 43.2911C120.864 43.3606 120.88 43.434 120.88 43.5113C120.88 43.6581 120.826 43.7779 120.718 43.8706C120.617 43.9556 120.49 43.9981 120.335 43.9981C120.165 43.9981 120.03 43.9479 119.929 43.8474C119.837 43.7392 119.79 43.5886 119.79 43.3954C119.79 43.1327 119.875 42.8931 120.045 42.6768C120.223 42.4604 120.451 42.2904 120.729 42.1668C121.007 42.0355 121.293 41.9698 121.587 41.9698C121.958 41.9698 122.263 42.0432 122.503 42.19C122.75 42.3368 122.931 42.53 123.047 42.7695C123.171 43.009 123.233 43.2718 123.233 43.5577V45.9916C123.233 46.1539 123.248 46.293 123.279 46.4089C123.318 46.5171 123.414 46.5712 123.569 46.5712C123.739 46.5712 123.92 46.5325 124.114 46.4553V46.6291C123.967 46.7218 123.781 46.8223 123.557 46.9305C123.341 47.0309 123.163 47.0811 123.024 47.0811C122.854 47.0811 122.727 47.0386 122.642 46.9536C122.564 46.8609 122.514 46.7489 122.491 46.6175C122.468 46.4784 122.456 46.3393 122.456 46.2003V46.0612L122.572 46.2234C122.418 46.3471 122.248 46.4746 122.062 46.6059C121.877 46.7373 121.687 46.8493 121.494 46.942C121.309 47.0348 121.127 47.0811 120.949 47.0811ZM121.274 46.5248C121.429 46.5248 121.587 46.4862 121.749 46.4089C121.919 46.3316 122.089 46.2312 122.259 46.1075C122.391 45.9994 122.456 45.8487 122.456 45.6555V44.5892C122.456 44.566 122.445 44.5467 122.421 44.5312C122.406 44.5158 122.387 44.5158 122.363 44.5312L120.544 45.2151C120.497 45.2305 120.463 45.2692 120.439 45.331C120.424 45.3851 120.416 45.4739 120.416 45.5976C120.416 45.7444 120.463 45.8912 120.555 46.038C120.648 46.1771 120.76 46.293 120.891 46.3857C121.031 46.4784 121.158 46.5248 121.274 46.5248ZM124.691 47V46.8261L125.178 46.6986C125.294 46.6677 125.371 46.6252 125.41 46.5712C125.456 46.5171 125.479 46.4359 125.479 46.3278V43.1636C125.479 43.009 125.46 42.9009 125.421 42.8391C125.383 42.7772 125.309 42.7309 125.201 42.7L124.703 42.5609V42.445C124.88 42.4063 125.054 42.3638 125.224 42.3175C125.402 42.2711 125.572 42.217 125.734 42.1552C125.904 42.0934 126.066 42.02 126.221 41.935L126.325 42.0045C126.287 42.105 126.252 42.217 126.221 42.3407C126.198 42.4566 126.186 42.5686 126.186 42.6768V42.7927L126.256 42.9665V46.3278C126.256 46.4359 126.275 46.5171 126.314 46.5712C126.36 46.6252 126.441 46.6677 126.557 46.6986L127.113 46.8261V47H124.691ZM126.256 43.7315L126.047 42.7927L127.392 42.0277C127.438 42.0045 127.484 41.9891 127.531 41.9814C127.585 41.9659 127.635 41.9582 127.681 41.9582C127.82 41.9582 127.944 42.0045 128.052 42.0973C128.16 42.19 128.215 42.3252 128.215 42.5029C128.215 42.642 128.164 42.7656 128.064 42.8738C127.963 42.982 127.824 43.0361 127.647 43.0361C127.538 43.0361 127.45 43.0129 127.38 42.9665C127.31 42.9202 127.249 42.87 127.195 42.8159C127.156 42.7695 127.113 42.727 127.067 42.6884C127.028 42.6497 126.982 42.6304 126.928 42.6304C126.874 42.6304 126.793 42.6652 126.685 42.7347C126.576 42.7966 126.476 42.9086 126.383 43.0709C126.298 43.2331 126.256 43.4533 126.256 43.7315Z" fill="white"/>
</svg>
