<svg width="220" height="49" viewBox="0 0 220 49" fill="none" xmlns="http://www.w3.org/2000/svg">
<path d="M17.2229 0.000831027C16.7882 0.00721817 16.3748 0.0508637 15.9931 0.133897C14.7422 0.402157 13.2581 1.16968 12.198 2.18523C11.1485 3.20079 10.5548 4.38561 10.6926 5.59278L10.8834 7.13421L9.42051 6.61259C6.39604 5.50655 4.11788 6.62324 2.41112 8.77357C0.703299 10.9346 -0.214749 14.1814 0.0428557 16.8852C0.230494 18.8653 1.60014 20.8346 3.52211 22.3675C5.44301 23.8898 7.88336 24.9437 9.87635 25.1779C11.6361 25.3802 13.9471 24.1772 15.7493 22.7934C17.5621 21.4095 18.8448 19.9617 18.8448 19.9617L19.3431 19.3975L20.0003 19.7595C20.0003 19.7595 21.1876 20.3875 22.6506 21.0582C24.1135 21.7395 25.9051 22.4421 26.785 22.5805C27.5058 22.6975 29.0324 22.293 30.2621 21.7714C31.4918 21.2392 32.4565 20.675 32.4565 20.675L33.3046 20.1746L33.771 21.0475C33.771 21.0475 34.6191 22.623 36.0184 24.1772C37.4178 25.7421 39.3048 27.1686 41.1917 27.1473C43.0575 27.126 44.6265 25.6782 45.835 23.4747C47.0435 21.2711 47.7856 18.4075 47.9658 16.1933C48.252 12.8613 46.7255 8.52873 44.0434 6.96388C43.3967 6.5913 41.5522 6.64453 39.962 6.99582C38.3719 7.35776 37.0361 7.87937 37.0361 7.87937L35.1916 8.59261L35.7746 6.69775C35.7746 6.69775 36.0078 5.93768 35.8064 5.00409C35.605 4.07157 35.0856 3.02195 33.0926 2.3034C30.3151 1.29636 28.8946 1.80733 28.0465 2.42688C27.1984 3.0475 26.9546 3.82673 26.9546 3.82673L26.2973 5.85891L25.216 4.01409C24.5269 2.81756 23.011 1.61359 21.2618 0.859902C19.9473 0.29464 18.5162 -0.0183304 17.2229 0.000831027ZM19.7459 21.7821C19.4809 22.0588 19.0992 22.4421 18.601 22.8998C18.6964 23.7195 18.6646 24.5711 18.389 25.5292C18.2617 25.9443 17.3077 25.5398 16.1309 24.8905C15.0814 25.625 13.9153 26.3063 12.6644 26.7215C13.7457 27.2856 14.9542 27.8179 16.396 28.3928C15.8977 39.0061 16.6398 45.6806 8.21199 48.64H19.4491V36.7173C19.4491 33.3109 27.5058 33.3109 27.5058 36.7173V48.64H40.4391C38.8489 47.4584 36.3153 46.7452 32.2339 46.0745C29.0218 36.1106 30.3681 32.3634 36.4531 27.2218C35.7534 26.6789 35.1386 26.0614 34.5979 25.4653C34.3647 25.2098 34.1633 24.9543 33.9724 24.7201C32.9972 25.7527 31.9158 26.466 30.8982 26.1998C30.0607 25.9763 29.5412 25.1992 29.2338 24.1879C28.3327 24.454 27.3998 24.6137 26.4881 24.4753C25.6294 24.3476 24.633 24.0069 23.6471 23.5918C23.5092 24.3582 23.1382 25.114 22.3961 25.9124C21.9403 26.4021 21.2724 24.3476 20.6046 22.2079C20.2759 22.0482 19.9897 21.8992 19.7459 21.7821ZM25.2796 41.018C25.0266 41.018 24.7839 41.1189 24.605 41.2986C24.426 41.4783 24.3255 41.722 24.3255 41.9761C24.3255 42.2302 24.426 42.4739 24.605 42.6535C24.7839 42.8332 25.0266 42.9342 25.2796 42.9342C25.5327 42.9342 25.7753 42.8332 25.9543 42.6535C26.1332 42.4739 26.2337 42.2302 26.2337 41.9761C26.2337 41.722 26.1332 41.4783 25.9543 41.2986C25.7753 41.1189 25.5327 41.018 25.2796 41.018Z" fill="white"/>
<path d="M63.856 32.512C62.864 32.512 61.984 32.28 61.216 31.816C60.464 31.352 59.872 30.72 59.44 29.92C59.008 29.12 58.792 28.232 58.792 27.256C58.792 26.136 59.032 25.16 59.512 24.328C60.008 23.48 60.664 22.824 61.48 22.36C62.296 21.88 63.184 21.64 64.144 21.64C65.376 21.64 66.336 21.912 67.024 22.456C67.712 22.984 68.056 23.656 68.056 24.472C68.056 24.968 67.92 25.328 67.648 25.552C67.392 25.776 67.096 25.888 66.76 25.888C66.392 25.888 66.08 25.784 65.824 25.576C65.568 25.352 65.44 25.056 65.44 24.688C65.44 24.448 65.504 24.208 65.632 23.968C65.664 23.888 65.696 23.808 65.728 23.728C65.776 23.632 65.8 23.528 65.8 23.416C65.8 23.096 65.632 22.84 65.296 22.648C64.976 22.456 64.576 22.36 64.096 22.36C63.6 22.36 63.136 22.52 62.704 22.84C62.288 23.16 61.952 23.648 61.696 24.304C61.44 24.944 61.312 25.736 61.312 26.68C61.312 28.056 61.656 29.104 62.344 29.824C63.048 30.544 63.888 30.904 64.864 30.904C65.856 30.904 66.84 30.496 67.816 29.68L68.176 29.992C67.552 30.872 66.864 31.512 66.112 31.912C65.376 32.312 64.624 32.512 63.856 32.512ZM74.8527 32.512C73.8127 32.512 72.8927 32.28 72.0927 31.816C71.2927 31.336 70.6767 30.696 70.2447 29.896C69.8127 29.08 69.5967 28.176 69.5967 27.184C69.5967 26.096 69.8127 25.136 70.2447 24.304C70.6767 23.472 71.2927 22.824 72.0927 22.36C72.8927 21.896 73.8127 21.664 74.8527 21.664C75.9087 21.664 76.8287 21.896 77.6127 22.36C78.3967 22.824 79.0047 23.456 79.4367 24.256C79.8847 25.056 80.1087 25.968 80.1087 26.992C80.1087 28.064 79.8847 29.016 79.4367 29.848C79.0047 30.68 78.3967 31.336 77.6127 31.816C76.8287 32.28 75.9087 32.512 74.8527 32.512ZM74.8767 31.816C75.7247 31.816 76.3807 31.44 76.8447 30.688C77.3087 29.92 77.5407 28.776 77.5407 27.256C77.5407 25.672 77.3087 24.464 76.8447 23.632C76.3807 22.784 75.7087 22.36 74.8287 22.36C73.9807 22.36 73.3247 22.736 72.8607 23.488C72.3967 24.24 72.1647 25.384 72.1647 26.92C72.1647 28.488 72.3967 29.696 72.8607 30.544C73.3247 31.392 73.9967 31.816 74.8767 31.816ZM81.6664 32.32V31.936L82.5304 31.648C82.7704 31.568 82.9384 31.464 83.0344 31.336C83.1304 31.208 83.1784 31.016 83.1784 30.76V22.624H81.5944V21.856H83.1784V21.568C83.1784 20.72 83.2824 19.944 83.4904 19.24C83.6984 18.536 84.0344 17.92 84.4984 17.392C84.9624 16.864 85.5464 16.456 86.2504 16.168C86.9704 15.88 87.8344 15.736 88.8424 15.736C89.5464 15.736 90.2184 15.872 90.8584 16.144C91.4984 16.4 91.9784 16.696 92.2984 17.032L90.8824 17.944C90.7224 17.48 90.4184 17.104 89.9704 16.816C89.5384 16.512 89.0664 16.36 88.5544 16.36C87.9944 16.36 87.5144 16.488 87.1144 16.744C86.7304 16.984 86.4184 17.328 86.1784 17.776C85.9384 18.208 85.7624 18.704 85.6504 19.264C85.5544 19.824 85.5064 20.424 85.5064 21.064V21.856H91.2904L90.7864 22.624H85.5064V30.88C85.5064 31.072 85.5624 31.232 85.6744 31.36C85.7864 31.488 85.9704 31.584 86.2264 31.648L87.3064 31.936V32.32H81.6664ZM88.3144 32.32V31.936L89.1784 31.648C89.4184 31.568 89.5784 31.464 89.6584 31.336C89.7544 31.208 89.8024 31.016 89.8024 30.76V22.6H88.2424V21.856H89.8024V20.488C89.8024 19.288 89.9944 18.304 90.3784 17.536C90.7784 16.768 91.3304 16.2 92.0344 15.832C92.7544 15.448 93.6024 15.256 94.5784 15.256C95.4264 15.256 96.1224 15.432 96.6664 15.784C97.2104 16.12 97.4824 16.568 97.4824 17.128C97.4824 17.528 97.3704 17.848 97.1464 18.088C96.9224 18.312 96.6344 18.424 96.2824 18.424C95.8984 18.424 95.5784 18.32 95.3224 18.112C95.0824 17.904 94.9624 17.616 94.9624 17.248C94.9624 17.136 94.9784 17.04 95.0104 16.96C95.0584 16.864 95.0984 16.792 95.1304 16.744C95.1624 16.68 95.1944 16.624 95.2264 16.576C95.2584 16.512 95.2744 16.44 95.2744 16.36C95.2744 16.2 95.1864 16.088 95.0104 16.024C94.8504 15.944 94.6584 15.904 94.4344 15.904C93.8744 15.904 93.4264 16.08 93.0904 16.432C92.7544 16.784 92.5144 17.312 92.3704 18.016C92.2264 18.72 92.1544 19.592 92.1544 20.632V21.856H95.1064L94.8664 22.6H92.1544V30.88C92.1544 31.072 92.2024 31.232 92.2984 31.36C92.4104 31.488 92.6024 31.584 92.8744 31.648L94.0024 31.936V32.32H88.3144ZM101.005 32.512C100.013 32.512 99.133 32.28 98.365 31.816C97.613 31.336 97.013 30.696 96.565 29.896C96.133 29.096 95.917 28.2 95.917 27.208C95.917 26.12 96.149 25.16 96.613 24.328C97.077 23.496 97.709 22.84 98.509 22.36C99.325 21.88 100.229 21.64 101.221 21.64C102.037 21.64 102.741 21.832 103.333 22.216C103.941 22.6 104.413 23.12 104.749 23.776C105.085 24.416 105.253 25.144 105.253 25.96C105.253 26.104 105.213 26.232 105.133 26.344C105.053 26.44 104.933 26.488 104.773 26.488H97.333V25.744L102.421 25.552C102.677 25.552 102.805 25.392 102.805 25.072C102.805 24.272 102.653 23.624 102.349 23.128C102.045 22.616 101.605 22.36 101.029 22.36C100.245 22.36 99.613 22.76 99.133 23.56C98.669 24.344 98.437 25.384 98.437 26.68C98.437 27.592 98.597 28.368 98.917 29.008C99.253 29.632 99.693 30.104 100.237 30.424C100.781 30.744 101.373 30.904 102.013 30.904C102.973 30.904 103.941 30.496 104.917 29.68L105.277 29.992C104.669 30.872 103.997 31.512 103.261 31.912C102.525 32.312 101.773 32.512 101.005 32.512ZM112.138 32.512C111.146 32.512 110.266 32.28 109.498 31.816C108.746 31.336 108.146 30.696 107.698 29.896C107.266 29.096 107.05 28.2 107.05 27.208C107.05 26.12 107.282 25.16 107.746 24.328C108.21 23.496 108.842 22.84 109.642 22.36C110.458 21.88 111.362 21.64 112.354 21.64C113.17 21.64 113.874 21.832 114.466 22.216C115.074 22.6 115.546 23.12 115.882 23.776C116.218 24.416 116.386 25.144 116.386 25.96C116.386 26.104 116.346 26.232 116.266 26.344C116.186 26.44 116.066 26.488 115.906 26.488H108.466V25.744L113.554 25.552C113.81 25.552 113.938 25.392 113.938 25.072C113.938 24.272 113.786 23.624 113.482 23.128C113.178 22.616 112.738 22.36 112.162 22.36C111.378 22.36 110.746 22.76 110.266 23.56C109.802 24.344 109.57 25.384 109.57 26.68C109.57 27.592 109.73 28.368 110.05 29.008C110.386 29.632 110.826 30.104 111.37 30.424C111.914 30.744 112.506 30.904 113.146 30.904C114.106 30.904 115.074 30.496 116.05 29.68L116.41 29.992C115.802 30.872 115.13 31.512 114.394 31.912C113.658 32.312 112.906 32.512 112.138 32.512ZM129.693 32.512C128.701 32.512 127.821 32.28 127.053 31.816C126.301 31.336 125.701 30.696 125.253 29.896C124.821 29.096 124.604 28.2 124.604 27.208C124.604 26.12 124.837 25.16 125.301 24.328C125.765 23.496 126.397 22.84 127.197 22.36C128.013 21.88 128.917 21.64 129.909 21.64C130.725 21.64 131.429 21.832 132.021 22.216C132.629 22.6 133.101 23.12 133.437 23.776C133.773 24.416 133.941 25.144 133.941 25.96C133.941 26.104 133.901 26.232 133.821 26.344C133.741 26.44 133.621 26.488 133.461 26.488H126.021V25.744L131.109 25.552C131.365 25.552 131.493 25.392 131.493 25.072C131.493 24.272 131.341 23.624 131.037 23.128C130.733 22.616 130.293 22.36 129.717 22.36C128.933 22.36 128.301 22.76 127.821 23.56C127.357 24.344 127.125 25.384 127.125 26.68C127.125 27.592 127.285 28.368 127.605 29.008C127.941 29.632 128.381 30.104 128.925 30.424C129.469 30.744 130.061 30.904 130.701 30.904C131.661 30.904 132.629 30.496 133.605 29.68L133.965 29.992C133.357 30.872 132.685 31.512 131.949 31.912C131.213 32.312 130.461 32.512 129.693 32.512ZM140.285 32.56L136.061 22.96C135.997 22.8 135.909 22.688 135.797 22.624C135.701 22.544 135.549 22.48 135.341 22.432L134.597 22.264V21.856H140.189V22.264L139.349 22.456C139.109 22.504 138.925 22.6 138.797 22.744C138.669 22.872 138.653 23.056 138.749 23.296L141.533 29.848H141.053L143.789 23.104C143.853 22.944 143.861 22.816 143.813 22.72C143.765 22.624 143.613 22.544 143.357 22.48L142.253 22.264V21.856H146.405V22.264L145.493 22.504C145.285 22.568 145.133 22.64 145.037 22.72C144.941 22.784 144.853 22.896 144.773 23.056L140.813 32.56H140.285ZM151.794 32.512C150.802 32.512 149.922 32.28 149.154 31.816C148.402 31.336 147.802 30.696 147.354 29.896C146.922 29.096 146.706 28.2 146.706 27.208C146.706 26.12 146.938 25.16 147.402 24.328C147.866 23.496 148.498 22.84 149.298 22.36C150.114 21.88 151.018 21.64 152.01 21.64C152.826 21.64 153.53 21.832 154.122 22.216C154.73 22.6 155.202 23.12 155.538 23.776C155.874 24.416 156.042 25.144 156.042 25.96C156.042 26.104 156.002 26.232 155.922 26.344C155.842 26.44 155.722 26.488 155.562 26.488H148.122V25.744L153.21 25.552C153.466 25.552 153.594 25.392 153.594 25.072C153.594 24.272 153.442 23.624 153.138 23.128C152.834 22.616 152.394 22.36 151.818 22.36C151.034 22.36 150.402 22.76 149.922 23.56C149.458 24.344 149.226 25.384 149.226 26.68C149.226 27.592 149.386 28.368 149.706 29.008C150.042 29.632 150.482 30.104 151.026 30.424C151.57 30.744 152.162 30.904 152.802 30.904C153.762 30.904 154.73 30.496 155.706 29.68L156.066 29.992C155.458 30.872 154.786 31.512 154.05 31.912C153.314 32.312 152.562 32.512 151.794 32.512ZM164.517 32.32V31.936L165.381 31.648C165.605 31.584 165.765 31.48 165.861 31.336C165.973 31.176 166.029 30.984 166.029 30.76V25.6C166.029 24.88 165.829 24.328 165.429 23.944C165.045 23.544 164.493 23.344 163.773 23.344C163.037 23.344 162.461 23.576 162.045 24.04C161.629 24.504 161.421 25.072 161.421 25.744L160.941 23.296H161.373C161.821 23.088 162.301 22.848 162.812 22.576C163.325 22.304 163.805 22.04 164.253 21.784C164.429 21.688 164.605 21.64 164.781 21.64C165.917 21.64 166.797 21.928 167.421 22.504C168.045 23.08 168.357 23.912 168.357 25V30.88C168.357 31.104 168.413 31.28 168.525 31.408C168.653 31.52 168.805 31.6 168.981 31.648L169.845 31.936V32.32H164.517ZM157.581 32.32V31.936L158.445 31.648C158.669 31.584 158.829 31.48 158.925 31.336C159.037 31.176 159.093 30.984 159.093 30.76V24.04C159.093 23.704 159.037 23.48 158.925 23.368C158.829 23.24 158.677 23.152 158.469 23.104L157.581 22.864V22.504C158.109 22.424 158.573 22.344 158.973 22.264C159.389 22.184 159.781 22.088 160.149 21.976C160.533 21.848 160.933 21.704 161.349 21.544L161.565 21.712C161.469 21.904 161.389 22.16 161.325 22.48C161.277 22.8 161.253 23.136 161.253 23.488V23.728L161.421 24.184V30.88C161.421 31.104 161.477 31.28 161.589 31.408C161.717 31.52 161.869 31.6 162.045 31.648L162.909 31.936V32.32H157.581ZM174.469 32.512C172.981 32.512 172.237 31.576 172.237 29.704V22.6H170.653V22.024C171.693 21.848 172.469 21.48 172.981 20.92C173.493 20.36 173.821 19.56 173.965 18.52H174.565V21.856H177.517L177.277 22.6H174.565V29.512C174.565 30.12 174.661 30.536 174.853 30.76C175.045 30.984 175.309 31.096 175.645 31.096C175.885 31.096 176.157 31.04 176.461 30.928C176.765 30.816 177.077 30.672 177.397 30.496L177.709 31.024C177.101 31.504 176.509 31.872 175.933 32.128C175.373 32.384 174.885 32.512 174.469 32.512ZM187.526 32.608L187.118 32.536V17.752C187.118 17.416 187.07 17.192 186.974 17.08C186.878 16.952 186.726 16.864 186.518 16.816L185.606 16.576V16.24C186.39 16.112 187.086 15.984 187.694 15.856C188.302 15.728 188.918 15.528 189.542 15.256L189.758 15.424C189.646 15.68 189.566 15.992 189.518 16.36C189.47 16.728 189.446 17.152 189.446 17.632V23.032L191.462 21.928C191.574 21.88 191.71 21.824 191.87 21.76C192.046 21.696 192.214 21.664 192.374 21.664C193.558 21.664 194.526 21.912 195.278 22.408C196.046 22.904 196.614 23.552 196.982 24.352C197.35 25.136 197.534 25.984 197.534 26.896C197.534 27.808 197.334 28.696 196.934 29.56C196.55 30.424 195.958 31.136 195.158 31.696C194.358 32.256 193.334 32.536 192.086 32.536C191.43 32.536 190.782 32.408 190.142 32.152C189.518 31.896 189.006 31.576 188.606 31.192C188.398 31.384 188.206 31.6 188.03 31.84C187.87 32.08 187.702 32.336 187.526 32.608ZM192.11 31.768C192.782 31.768 193.334 31.576 193.766 31.192C194.198 30.808 194.518 30.312 194.726 29.704C194.934 29.096 195.038 28.44 195.038 27.736C195.038 26.952 194.918 26.216 194.678 25.528C194.438 24.84 194.078 24.28 193.598 23.848C193.118 23.4 192.494 23.176 191.726 23.176C191.006 23.176 190.446 23.392 190.046 23.824C189.646 24.24 189.446 24.728 189.446 25.288V28.624C189.446 29.2 189.566 29.728 189.806 30.208C190.062 30.688 190.39 31.072 190.79 31.36C191.206 31.632 191.646 31.768 192.11 31.768ZM202.286 32.488C201.726 32.488 201.214 32.328 200.75 32.008C200.286 31.688 199.918 31.272 199.646 30.76C199.374 30.248 199.238 29.696 199.238 29.104C199.238 28.832 199.262 28.64 199.31 28.528C199.374 28.4 199.47 28.312 199.598 28.264L204.398 26.488C204.718 26.376 204.934 26.248 205.046 26.104C205.158 25.944 205.214 25.728 205.214 25.456V24.736C205.214 24.032 205.046 23.456 204.71 23.008C204.374 22.56 203.854 22.336 203.15 22.336C202.686 22.336 202.31 22.44 202.022 22.648C201.734 22.84 201.59 23.08 201.59 23.368C201.59 23.48 201.614 23.584 201.662 23.68C201.726 23.776 201.798 23.872 201.878 23.968C201.99 24.112 202.078 24.264 202.142 24.424C202.222 24.584 202.262 24.752 202.262 24.928C202.262 25.28 202.134 25.56 201.878 25.768C201.638 25.976 201.326 26.08 200.942 26.08C200.542 26.08 200.23 25.968 200.006 25.744C199.782 25.504 199.67 25.176 199.67 24.76C199.67 24.184 199.87 23.664 200.27 23.2C200.67 22.72 201.182 22.344 201.806 22.072C202.43 21.784 203.07 21.64 203.726 21.64C204.478 21.64 205.134 21.776 205.694 22.048C206.27 22.304 206.718 22.68 207.038 23.176C207.374 23.656 207.542 24.248 207.542 24.952V30.088C207.542 30.408 207.574 30.68 207.638 30.904C207.718 31.128 207.902 31.24 208.19 31.24C208.478 31.24 208.83 31.168 209.246 31.024V31.528C208.942 31.72 208.542 31.928 208.046 32.152C207.566 32.36 207.142 32.464 206.774 32.464C206.438 32.464 206.166 32.392 205.958 32.248C205.75 32.104 205.598 31.88 205.502 31.576C205.406 31.272 205.358 30.912 205.358 30.496V30.16L205.838 30.616C205.502 30.904 205.134 31.192 204.734 31.48C204.334 31.768 203.926 32.008 203.51 32.2C203.094 32.392 202.686 32.488 202.286 32.488ZM203.366 31.168C203.622 31.168 203.87 31.112 204.11 31C204.366 30.888 204.63 30.736 204.902 30.544C205.11 30.384 205.214 30.128 205.214 29.776V27.16C205.214 27.112 205.198 27.08 205.166 27.064C205.134 27.032 205.094 27.032 205.046 27.064L201.83 28.24C201.734 28.272 201.662 28.344 201.614 28.456C201.582 28.568 201.566 28.752 201.566 29.008C201.566 29.36 201.654 29.704 201.83 30.04C202.006 30.36 202.23 30.632 202.502 30.856C202.79 31.064 203.078 31.168 203.366 31.168ZM210.291 32.32V31.936L211.155 31.648C211.395 31.568 211.563 31.464 211.659 31.336C211.755 31.208 211.803 31.016 211.803 30.76V24.04C211.803 23.704 211.747 23.48 211.635 23.368C211.539 23.24 211.387 23.152 211.179 23.104L210.291 22.864V22.504C210.819 22.424 211.283 22.344 211.683 22.264C212.099 22.184 212.491 22.088 212.859 21.976C213.243 21.848 213.643 21.704 214.059 21.544L214.275 21.712C214.179 21.904 214.099 22.16 214.035 22.48C213.987 22.8 213.963 23.136 213.963 23.488V23.728L214.131 24.184V30.88C214.131 31.072 214.187 31.232 214.299 31.36C214.411 31.472 214.587 31.568 214.827 31.648L215.835 31.936V32.32H210.291ZM214.131 25.888L213.699 23.632L216.531 21.928C216.723 21.816 216.891 21.744 217.035 21.712C217.179 21.664 217.323 21.64 217.467 21.64C217.819 21.64 218.139 21.784 218.427 22.072C218.715 22.344 218.859 22.704 218.859 23.152C218.859 23.504 218.723 23.824 218.451 24.112C218.179 24.4 217.819 24.544 217.371 24.544C217.099 24.544 216.867 24.48 216.675 24.352C216.483 24.224 216.315 24.096 216.171 23.968C216.075 23.84 215.971 23.728 215.859 23.632C215.747 23.52 215.619 23.464 215.475 23.464C215.347 23.464 215.171 23.528 214.947 23.656C214.739 23.784 214.547 24.024 214.371 24.376C214.211 24.712 214.131 25.216 214.131 25.888Z" fill="white"/>
</svg>
